<?xml version="1.0" encoding="UTF-8" standalone="no"?>
<svg id="svg4515" xmlns:rdf="http://www.w3.org/1999/02/22-rdf-syntax-ns#" xmlns="http://www.w3.org/2000/svg" height="286.43mm" width="282.22mm" version="1.1" xmlns:cc="http://creativecommons.org/ns#" xmlns:dc="http://purl.org/dc/elements/1.1/" viewBox="0 0 1000 1014.8936">
<g id="layer1" transform="translate(169.97 150.6)">
<g id="g4255">
<g>
<path id="path38" d="m-98.983 463.91c18.918 25.035 55.79 44.179 67.742 50.013-13.537-37.156-22.939-74.765-27.754-112.83-3.6251-29.056-4.5879-58.339-2.6055-87.962-13.254 18.918-29.623 45.142-39.535 71.876-10.648 28.547-13.877 57.716 2.1524 78.9z" class="fil5" fill="#8c7e57"/>
<path id="path46" d="m782.34 523.66c35.967-80.995 58.566-207.47 32.568-329.59-19.484-91.417-66.212-180.34-154.97-245.99-5.8906-3.8515-11.951-7.6464-18.012-11.328-127.55-76.804-261.28-92.323-369.12-79.296-106.94 12.914-188.33 53.695-212.97 90.341 2.3222 9.912 4.871 20.73 8.4394 31.492 24.129-12.404 50.75-21.183 79.523-25.941 15.859-2.6055 32.398-3.9648 49.503-3.9648 37.383-30.756 82.808-33.361 108.86 12.404 4.3612 1.0195 24.525 6.1738 44.689 17.672 17.785 10.195 28.773 19.654 32.681 23.279 20.221-36.533 63.947-115.04 67.232-116.68 37.609-18.805 141.26 81.448 160.63 116.4 23.336 42.14 35.344 85.81 33.418 94.702-1.9824 9.0058-20.957 21.806-35.683 30.586 17.332-5.3808 40.724-12.064 44.406-9.8554 3.3983 2.039 19.937 30.982 28.66 81.732 4.9276 28.377 7.5331 63.72 4.1913 105.12-5.1542 64.57-38.912 199.03-83.657 259.13-5.2676 7.1366-10.535 12.517-13.82 12.517-5.1542 0-27.131-24.752-38.119-37.496l21.976 69.837-0.73629 0.22655c-0.73618 2.7754-7.1932 10.365-37.382 31.095-17.275 11.838-33.701 21.41-47.408 28.547-20.277 10.535-35.004 15.916-38.515 15.916-4.1349 0-5.4942-2.7187-10.139-11.725-3.7383-7.3066-9.7988-19.201-21.523-38.062-23.166-37.382-93.909-92.38-102.63-99.064-3.7948 0.39649-8.0428 0.50976-12.574 0-8.8358-0.96287-13.65-3.5683-16.199-6.0038-10.252 65.023-27.074 131.07-54.431 181.64 2.8886-1.0762 7.8163-2.039 15.973-1.8691 11.271 0.22657 19.881 2.3789 24.355 3.7949 1.1328-28.547 1.5293-60.888 2.209-67.175 0.0562 0.22656 7.1933 65.646-1.5294 109.43-0.28313 1.2461-0.45304 2.3789-0.67962 3.4551-3.2852 20.221-0.1699 41.177 11.328 58.566 3.172 4.7011 6.9668 9.1757 11.385 13.31 3.3418-5.4941 12.687-20.277 27.697-40.328 4.3613-5.834 8.496-9.8554 12.404-12.461 5.0976-3.4551 9.7421-4.5879 13.82-4.4179 4.1346 0.22656 7.6463 1.8691 10.422 3.9648 2.2656 1.6992 4.0781 3.6816 5.3241 5.5507 3.1152 4.5878 5.6641 9.0058 7.1366 11.724 3.6817-5.6074 7.6466-9.9687 11.611-13.197 8.2694-6.7402 16.765-8.6659 22.826-6.8535 5.324 1.5859 11.498 8.8359 17.049 18.578 1.3594 2.3222 2.6055 4.7578 3.8515 7.2499 3.2851-6.7402 10.592-20.164 18.748-24.242 6.1171-3.0586 14.33-3.455 23.676 0.62305 7.5331 3.3418 15.916 9.6855 24.582 20.051 15.52 18.635 24.865 40.554 27.584 47.521 19.824-6.6835 36.136-15.689 46.218-27.244 19.881-22.769 27.98-51.882 27.357-81.732-0.28314-13.82-14.33-69.441-27.867-98.271 10.025 14.783 18.182 31.718 23.675 49.56 7.3066-3.5117 26.338-15.18 56.357-50.863 8.4961-10.082 29.453-35.4 51.316-69.441-0.0562 0.0566-8.4393 24.638-48.314 71.99-30.869 36.59-50.693 48.541-58.226 52.052 4.2481 14.67 6.6836 29.849 6.9669 44.916 0.11358 5.5507-0.0562 11.045-0.56651 16.539 3.8515-2.7187 10.138-6.6269 14.84-6.6269 3.9648 0.0566 8.3828 2.039 12.121 6.6835 3.0585 3.7382 5.7206 9.2323 7.4199 16.935 2.8886 12.857 2.2656 25.715 1.8124 30.982 2.209-0.39648 4.3614-0.79296 6.5137-1.2461 16.369-3.3418 31.549-8.7792 40.044-16.822 15.746-14.953 18.012-35.57 20.504-57.433 0.67974-6.5136 1.4727-13.141 2.5489-19.824 2.9453-17.558 7.8164-27.867 24.525-63.154 11.384-24.072 28.377-59.925 54.091-117.92z" class="fil6" fill="#a39469"/>
<path id="path48" d="m782.34 523.66c35.967-80.995 58.566-207.47 32.568-329.59-19.484-91.417-66.212-180.34-154.97-245.99-5.8906-3.8515-11.951-7.6464-18.012-11.328-107.22-64.57-218.8-85.81-315.71-83.204-37.269 25.318-41.461 61.851-39.648 84.904 7.2498 5.6074 13.877 13.31 19.598 23.336 4.3612 1.0195 24.525 6.1738 44.689 17.672 17.785 10.195 28.773 19.654 32.681 23.279 20.221-36.533 63.947-115.04 67.232-116.68 37.609-18.805 141.26 81.448 160.63 116.4 23.336 42.14 35.344 85.81 33.418 94.702-1.9824 9.0058-20.957 21.806-35.683 30.586 17.332-5.3808 40.724-12.064 44.406-9.8554 3.3983 2.039 19.937 30.982 28.66 81.732 4.9276 28.377 7.5331 63.72 4.1913 105.12-5.1542 64.57-38.912 199.03-83.657 259.13-5.2676 7.1366-10.535 12.517-13.82 12.517-5.1542 0-27.131-24.752-38.119-37.496l21.976 69.837-0.73629 0.22655c-0.73618 2.7754-7.1932 10.365-37.382 31.095-17.275 11.838-33.701 21.41-47.408 28.547-20.277 10.535-35.004 15.916-38.515 15.916-4.1349 0-5.4942-2.7187-10.139-11.725-3.7383-7.3066-9.7988-19.201-21.523-38.062-23.166-37.382-93.909-92.38-102.63-99.064-3.7948 0.39649-8.0428 0.50976-12.574 0-8.8358-0.96287-13.65-3.5683-16.199-6.0038-10.252 65.023-27.074 131.07-54.431 181.64 2.8886-1.0762 7.8163-2.039 15.973-1.8691 11.271 0.22657 19.881 2.3789 24.355 3.7949 1.1328-28.547 1.5293-60.888 2.209-67.175 0.0562 0.22656 7.1933 65.646-1.5294 109.43-0.28313 1.2461-0.45304 2.3789-0.67962 3.4551-3.2852 20.221-0.1699 41.177 11.328 58.566 3.172 4.7011 6.9668 9.1757 11.385 13.31 3.3418-5.4941 12.687-20.277 27.697-40.328 4.3613-5.834 8.496-9.8554 12.404-12.461 5.0976-3.4551 9.7421-4.5879 13.82-4.4179 4.1346 0.22656 7.6463 1.8691 10.422 3.9648 2.2656 1.6992 4.0781 3.6816 5.3241 5.5507 3.1152 4.5878 5.6641 9.0058 7.1366 11.724 3.6817-5.6074 7.6466-9.9687 11.611-13.197 8.2694-6.7402 16.765-8.6659 22.826-6.8535 5.324 1.5859 11.498 8.8359 17.049 18.578 1.3594 2.3222 2.6055 4.7578 3.8515 7.2499 3.2851-6.7402 10.592-20.164 18.748-24.242 6.1171-3.0586 14.33-3.455 23.676 0.62305 7.5331 3.3418 15.916 9.6855 24.582 20.051 15.52 18.635 24.865 40.554 27.584 47.521 19.824-6.6835 36.136-15.689 46.218-27.244 19.881-22.769 27.98-51.882 27.357-81.732-0.28314-13.82-14.33-69.441-27.867-98.271 10.025 14.783 18.182 31.718 23.675 49.56 7.3066-3.5117 26.338-15.18 56.357-50.863 8.4961-10.082 29.453-35.4 51.316-69.441-0.0562 0.0566-8.4393 24.638-48.314 71.99-30.869 36.59-50.693 48.541-58.226 52.052 4.2481 14.67 6.6836 29.849 6.9669 44.916 0.11358 5.5507-0.0562 11.045-0.56651 16.539 3.8515-2.7187 10.138-6.6269 14.84-6.6269 3.9648 0.0566 8.3828 2.039 12.121 6.6835 3.0585 3.7382 5.7206 9.2323 7.4199 16.935 2.8886 12.857 2.2656 25.715 1.8124 30.982 2.209-0.39648 4.3614-0.79296 6.5137-1.2461 16.369-3.3418 31.549-8.7792 40.044-16.822 15.746-14.953 18.012-35.57 20.504-57.433 0.67974-6.5136 1.4727-13.141 2.5489-19.824 2.9453-17.558 7.8164-27.867 24.525-63.154 11.384-24.072 28.377-59.925 54.091-117.92z" class="fil7" fill="#7d6f4a"/>
<path id="path50" d="m411.91 627.14c-27.074-36.873-89.321-85.243-97.478-91.474-3.7949 0.39649-8.0429 0.50976-12.574 0-8.8358-0.96287-13.65-3.5683-16.199-6.0038-10.252 65.023-27.074 131.07-54.431 181.64 2.8887-1.0762 7.8163-2.039 15.973-1.8691 11.271 0.22657 19.881 2.3789 24.355 3.7949 1.1328-28.547 1.5293-60.888 2.209-67.175 0 0.11323 2.4355 22.203 2.7753 49.22 5.2676-8.6659 24.695-36.646 66.949-56.867 37.099-17.785 59.246-14.387 68.421-11.271z" class="fil8" fill="#695d3d"/>
<path id="path52" d="m440.57 210.89c22.486 23.732 34.381 53.582 35.174 88.302 0.79309 34.607-9.5722 74.029-31.605 116.96 8.7792 14.387 17.105 31.549 23.279 49.22 12.064 34.324 16.256 70.46 0.67973 91.53-0.62306 0.8496-1.2462 1.6426-1.9259 2.3789-3.7383 4.3613-8.0995 7.6464-13.027 10.082-17.162 8.3261-40.441 5.5507-62.927-2.3789-22.203-7.873-43.726-20.787-57.546-32.681-1.0194-0.84961-1.9824-1.7558-2.8886-2.6054-1.8691 0.79296-5.3241 2.0957-9.8554 3.0586 5.7208 4.4179 76.408 59.076 100.48 97.874 11.781 18.918 17.898 30.982 21.693 38.345 3.7383 7.4198 4.871 9.6288 6.627 9.6288 3.0585 0 16.992-5.2675 36.703-15.519 13.65-7.08 29.906-16.539 47.011-28.32 36.42-24.978 38.232-25.545 38.289-25.545l-1.3028-0.11323-0.39637-1.2461-24.865-79.07-3.0018-9.4023 6.3436 7.5898c0.11359 0.11323 36.306 43.443 41.404 43.443 1.8691 0 6.0605-4.7011 10.648-10.875 44.293-59.472 77.824-193.14 82.921-257.09 3.285-41.064 0.73629-76.068-4.1348-104.16-8.5526-49.503-23.789-77.2-26.847-79.07-4.248-2.5488-60.038 16.369-60.208 16.426l-25.205 8.496 23.676-12.121c0.17002-0.0566 48.371-24.638 51.203-37.722 1.83-8.313-10.07-50.566-33.01-91.914-18.46-33.417-120.7-132.19-155.42-114.81-7.8163 5.9472-58.906 110.79-79.07 131.46 0.0562-0.05656 3.1719-5.7206 8.1562-14.726-2.8885-2.7754-13.82-12.631-32.738-23.449-22.203-12.687-44.349-17.389-44.406-17.445l-0.84965-0.16993-0.45315-0.79295c-24.015-44.179-64.74-43.216-99.8-15.066 10.478 0.16992 21.127 0.8496 32.002 2.0391-21.014 0.5664-56.47 2.2656-66.609 3.1718-6.9099 0.67968-13.65 1.5293-20.334 2.6621-61.511 10.092-113.22 39.205-151.29 82.478-38.114 43.329-62.696 100.93-69.889 167.88-3.7383 34.494-2.8886 71.48 3.0586 110.33 3.0584-4.5312 5.9472-8.7226 8.666-12.517 2.662-31.775 8.7225-63.89 18.465-96.401-1.246 0.62304-2.5487 0.96289-3.9081 0.96289-6.2304 0-11.271-7.0234-11.271-15.689 0-1.5859 0.17002-3.1152 0.45316-4.5312 0.79297 2.6621 2.5488 4.5312 4.5312 4.5312 2.7754 0 5.041-3.5117 5.041-7.873 0-2.9453-1.0762-5.5507-2.6054-6.9101 1.1895-0.62304 2.4921-0.96287 3.8515-0.96287 4.7577 0 8.8358 4.1914 10.478 10.025 0.7363-2.039 1.416-4.0781 2.1523-6.0605-0.45316-4.1914-1.0195-7.2499-4.8144-14.387-1.1896-2.1523-2.7187-3.6816-4.4746-4.5312-1.8125-0.90622-3.8516-1.1328-5.8907-0.73632-2.0955 0.45311-4.1912 1.5859-6.0604 3.455-2.6622 2.6621-4.8712 6.6835-5.9472 12.178-3.3418 16.312 2.4353 28.15 3.3983 29.963 0.50972 0.16991 1.0194 0.28319 1.4159 0.45312 3.1153 1.1328 9.6289 7.2499 9.7422 10.932-2.8886-4.5312-6.457-7.3066-10.535-8.7226-4.1348-1.4726-8.7793-1.6426-13.764-0.96287 3.0019-2.209 6.7968-2.6054 9.9688-2.2656-1.9259-4.4179-5.7208-15.576-2.8321-29.906 1.246-6.0605 3.7383-10.535 6.7401-13.537 2.209-2.209 4.7577-3.5683 7.3066-4.1347 2.662-0.50976 5.2674-0.22655 7.5898 0.90625 2.2656 1.1328 4.1914 3.0019 5.6073 5.664 2.2656 4.248 3.3418 8.5527 3.7383 12.291 4.6445-12.574 9.7988-25.262 15.576-38.006-4.0781 16.709-15.406 48.767-18.351 57.716-22.429 68.931-27.98 136.05-19.654 201.7 10.365 82.638 42.82 162.95 91.644 241.57l0.9062 1.3594c5.8339 1.3594 11.498 3.6816 16.992 6.8534 25.092-8.1562 50.183-12.291 75.105-11.951 24.299 0.33984 48.484 4.9843 72.273 14.33-40.611-8.8359-46.785-10.025-72.443-10.422-23.279-0.2832-46.785 3.5117-70.347 10.932 3.9082 2.6621 7.7031 5.8339 11.328 9.4589 11.271-0.11323 21.976 1.416 32.058 4.8144 15.18 5.041 29 14.103 41.177 27.697-22.883-16.312-26.394-18.691-42.367-24.015-6.5135-2.1523-13.31-3.5683-20.334-4.1914 12.801 5.664 23.789 13.14 32.681 22.486 11.045 11.611 18.974 26.111 23.336 43.783-12.517-25.148-14.556-28.886-26.168-41.064-9.289-9.7987-20.957-17.389-34.664-22.996 19.824 26.564 22.996 74.878 22.996 75.048-8.7793-29.566-7.5898-54.431-30.529-77.824 0-0.0565-0.05621-0.0565-0.11358-0.0565l0.05621-0.0566c-0.05621 0-0.05621-0.0566-0.05621-0.0566-11.611-11.781-24.752-18.578-38.345-19.994-13.367-1.416-27.244 2.4355-40.724 11.781-6.2304 4.3613-11.385 11.894-15.293 21.183-4.1913 10.082-6.8534 22.203-7.7597 34.607-1.9824 26.961 5.7206 49.9 20.39 67.062 15.236 17.842 37.892 29.453 65.023 32.965 14.613 1.8691 31.379 0.90624 50.75-4.4746 19.428-5.4375 41.404-15.293 66.269-31.322 102.86-66.439 124.1-293.11 127.95-415.06 0.28313-8.8925 2.0955-51.146 4.248-79.353 0.0562 0.62304 4.3045 118.04-14.5 240.78h0.16991s0.96287 5.7206 15.633 7.3632c11.045 1.1894 20.107-1.416 24.412-3.0586-1.3028-1.416-2.5488-2.7187-3.6249-4.0214-17.275-13.367 3.285-76.464 6.3436-84.394 8.2128-21.07 22.09-38.912 39.705-49.56 10.479-6.3437 38.855-14.5 56.98-2.2656-1.2461-0.33985-2.4921-0.62304-3.7948-0.90625 3.6249 3.4551 7.3632 7.7597 11.158 12.801-3.2852-19.484-11.498-37.779-24.582-53.865-12.688-15.633-45.425-40.838-58.339-47.125 26.168 11.271 46.728 26.564 61.398 44.689 15.123 18.578 24.015 40.101 26.394 63.04 1.1328 1.6992 2.2656 3.3984 3.3983 5.1542 21.013-41.574 30.869-79.636 30.133-113.05 0.33969-14.783-9.0625-64.4-31.265-88.359zm-82.468-63.89c3.7383 2.209 7.08 5.2109 9.6288 8.9492 4.0215 6.0038 6.1173 13.537 5.7774 21.75-0.28314 7.6464-2.6622 15.973-7.4764 24.242 3.6815 0.62304 6.9667 1.8125 8.6092 3.5683-8.666-2.4922-16.256-2.0391-22.996 0.62304-6.8534 2.7187-12.914 7.6464-18.521 14.103 2.1523-9.6288 11.725-15.633 17.049-17.728 2.7187-1.0762 7.9861-1.4726 13.027-0.96288 4.6445-7.873 7.4197-16.709 7.7031-23.959 0.33981-7.6464-1.586-14.613-5.381-20.164-2.2656-3.3984-5.324-6.1738-8.7226-8.2128-5.3808-3.1718-11.668-4.7578-17.955-4.6445-21.24 0.39648-27.357 13.99-33.021 31.435 0-2.6621 0.39648-6.1738 1.416-9.9687 4.0781-14.84 15.972-23.789 31.549-24.072 6.7402-0.11335 13.594 1.5859 19.314 5.041zm-250.52 36.08c10.988 1.0762 21.127 2.4922 29.34 4.1347 8.3826 1.6992 14.896 3.6816 18.465 5.8906 3.2283 1.9258 4.5311 4.1347 3.6249 6.6835-0.79309-8.4394-28.264-11.724-51.882-14.047-11.498-1.1328-23.619-0.62304-35.853-0.96289-12.461-0.39648-58.566-2.209-74.142 8.5526 3.913-13.08 64.744-14.66 110.45-10.25zm218.92-4.81c0 6.5702 5.3242 11.951 11.951 11.951 2.7186 0 5.2675-0.96288 7.3065-2.4922 0.0562 0.79297 0.11358 1.6426 0.11358 2.4922 0 10.705-8.6659 19.371-19.371 19.371s-19.371-8.6659-19.371-19.371 8.666-19.428 19.371-19.428c0.84964 0 1.6993 0.0566 2.4921 0.16992-1.5292 2.039-2.4921 4.5878-2.4921 7.3066zm-359.5 119.96c36.023-10.365 72.33-14.726 108.86-13.99 36.533 0.79294 73.292 6.7402 110.16 16.992-78.56-13.48-96.345-12.744-110.22-13.027-13.65-0.33985-70.007 0.45312-108.81 10.025zm471.93-88.98c0.56639 0.50977 1.1328 1.0762 1.6425 1.6426-0.50971-0.56642-1.0761-1.1328-1.6425-1.6426zm-335.09 267.68c36.42-2.1523 73.519 0.8496 111.13 8.0995-79.353-7.1367-97.024-4.9843-110.9-4.1914-13.65 0.8496-69.781 6.1171-107.62 18.805 35.06-13.254 70.913-20.56 107.39-22.713zm-62.077 123.87c3.9081-13.31 64.796-18.181 110.5-16.199 10.988 0.45311 21.07 1.3027 29.283 2.5488 8.3827 1.1895 14.896 2.832 18.521 4.8144 3.1719 1.7558 4.4746 3.9082 3.5684 6.5136-0.73642-8.4394-28.264-10.195-51.882-11.215-11.498-0.50975-23.619 0.62304-35.853 0.96289-12.404 0.2832-58.566 1.0195-74.142 12.574zm-68.36-192.74c42.084-13.254 85.017-20.504 128.74-22.713 43.67-2.1523 88.132 0.8496 133.22 8.0995-95.155-7.1367-116.34-4.9843-132.93-4.1914-16.369 0.8496-83.601 6.1171-129.03 18.804zm8.7792-284.9c4.9843 4.4746 2.9452 15.123-9.6854 17.955-12.574 2.7754-26.564-2.039-26.564-2.039 0 0.11335 2.8886-6.5136 9.912-12.971 7.0234-6.5136 21.353-7.4198 26.338-2.9453zm130.05-32.57c19.371 1.8691 38.629 8.8359 57.716 20.164-41.07-15.742-50.59-15.515-58.01-16.251-7.25-0.68-37.265-1.53-58.448 6.971 19.767-9.35 39.308-12.692 58.738-10.88zm231.21 16.369s-18.182 6.2871-34.55 2.6621c-16.369-3.6816-19.031-17.558-12.574-23.336 6.4569-5.7773 25.092-4.5879 34.211 3.7949 9.1757 8.4394 12.914 17.049 12.914 16.879zm-290.46 613.87c1.0195 8.2128 0.50972 15.066-1.1328 20.787-2.0391 7.0234-5.7774 12.234-10.422 15.859-4.6443 3.625-10.139 5.6074-15.689 6.287-5.0408 0.62303-10.138 0.16992-14.67-1.1328 5.4376 0.11323 11.385 0.73632 18.974-2.7187-4.4746-0.0566-10.365-0.8496-15.576-3.9082-3.0586-1.8691-4.9845-4.1914-6.0039-6.8534-1.5858-4.1347-0.79297-9.0058 1.5294-13.933 2.209-4.8144 5.8905-9.7421 10.138-14.16 7.7598-8.0429 17.559-14.556 24.865-16.199-9.9686-24.978-32.115-28.773-32.908-30.472 0.05621 0 36.193 8.8359 40.894 46.445z" class="fil6" fill="#a39469"/>
<path id="path54" d="m440.57 210.89c22.486 23.732 34.38 53.582 35.173 88.302 0.79297 34.607-9.5721 74.029-31.605 116.96 8.7792 14.387 17.105 31.549 23.279 49.22 12.064 34.324 16.256 70.46 0.67962 91.53-0.62306 0.8496-1.246 1.6426-1.9256 2.3789-3.7383 4.3613-8.0997 7.6464-13.027 10.082-17.162 8.3261-40.441 5.5507-62.927-2.3789-22.203-7.873-43.726-20.787-57.546-32.681-1.0197-0.84961-1.9824-1.7558-2.8887-2.6054-1.8691 0.79296-5.3241 2.0957-9.8553 3.0586 5.7206 4.4179 76.407 59.076 100.48 97.874 11.781 18.918 17.898 30.982 21.693 38.345 3.7383 7.4198 4.871 9.6288 6.6268 9.6288 3.0586 0 16.992-5.2675 36.703-15.519 13.65-7.08 29.906-16.539 47.011-28.32 36.42-24.978 38.232-25.545 38.289-25.545l-1.3028-0.11323-0.39648-1.2461-24.865-79.07-3.0021-9.4023 6.3439 7.5898c0.11358 0.11323 36.306 43.443 41.404 43.443 1.8691 0 6.0605-4.7011 10.648-10.875 44.292-59.472 77.823-193.14 82.921-257.09 3.2851-41.064 0.73618-76.068-4.1348-104.16-8.5528-49.503-23.789-77.2-26.847-79.07-4.248-2.5488-60.038 16.369-60.208 16.426l-25.205 8.496 23.676-12.121c0.16991-0.0566 48.371-24.638 51.203-37.722 1.83-8.313-10.07-50.566-33.01-91.914-18.46-33.417-120.7-132.19-155.42-114.81-7.8163 5.9472-58.906 110.79-79.07 131.46 0.0562-0.05656 3.172-5.7207 8.1563-14.726-2.8887-2.7754-13.82-12.631-32.738-23.449-22.203-12.687-44.349-17.389-44.406-17.445l-0.84964-0.16993-0.45316-0.79295c-4.7578-8.7792-10.195-15.803-16.143-21.127 1.2461 10.252 3.4551 16.822 3.4551 16.822s-9.9688-20.957-26.394-29.226c-6.5135-1.5859-13.31-1.7558-20.164-0.73632-5.7772 8.6659 22.486 36.703 22.486 36.703s-51.429-17.502-122.8 35.457c-27.58 20.456-48.761 50.362-63.658 90.124 10.818-2.3222 21.58-2.832 32.285-1.8691 19.371 1.8691 38.629 8.8359 57.716 20.164-41.06-15.752-50.58-15.525-58-16.261-4.58-0.397-18.291-0.906-33.074 0.906-9.006 24.755-15.633 53.245-19.88 85.465 16.086-0.0566 33.191 0.73632 48.597 2.209 10.988 1.0762 21.127 2.4922 29.34 4.1347 8.3828 1.6992 14.896 3.6816 18.465 5.8906 3.2286 1.9258 4.5311 4.1347 3.6249 6.6835-0.79286-8.4394-28.263-11.724-51.882-14.047-11.498-1.1328-23.619-0.62304-35.853-0.96288-2.7754-0.11335-7.3065-0.2832-12.744-0.33985-3.7949 30.076-5.5505 63.437-5.3808 100.03 7.5898-0.28321 15.18-0.33984 22.713-0.22656 36.533 0.79296 73.292 6.7402 110.16 16.992-78.56-13.48-96.345-12.744-110.22-13.027-4.1348-0.11335-12.234-0.11335-22.599 0.22655 0.22658 21.806 1.0761 44.802 2.7187 68.931 0.67974 10.818 1.416 21.467 2.0957 32.002 14.613-1.9258 29.283-3.2851 44.123-4.0214 43.67-2.1523 88.132 0.84961 133.22 8.0995-95.155-7.1366-116.34-4.9843-132.93-4.1914-7.1367 0.39647-23.846 1.5859-44.179 3.8515 2.039 31.095 3.9648 60.718 5.7207 88.359 13.197-2.2656 26.507-3.7382 39.875-4.5312 36.42-2.1523 73.519 0.84961 111.13 8.0995-79.353-7.1366-97.025-4.9843-110.9-4.1914-6.2871 0.39649-21.523 1.6992-39.875 4.248 2.4921 39.138 4.7011 74.142 6.5135 103.42 22.656-3.9082 54.714-5.0976 81.562-3.9082 10.988 0.45312 21.07 1.3027 29.283 2.5488 8.3827 1.1895 14.896 2.832 18.521 4.8144 3.1718 1.7558 4.4746 3.9082 3.5684 6.5136-0.73629-8.4394-28.263-10.195-51.882-11.215-11.498-0.50975-23.619 0.62304-35.853 0.96288-7.4764 0.16992-27.131 0.50976-45.029 3.2851 1.3027 20.957 2.3788 38.912 3.285 53.298 18.465-4.4179 36.986-6.6269 55.394-6.4003 24.299 0.33985 48.484 4.9843 72.273 14.33-40.611-8.8359-46.785-10.025-72.443-10.422-18.238-0.22656-36.59 2.039-54.998 6.6269l0.84964 13.82c9.459 0.28321 18.578 1.8691 27.187 4.7578 15.18 5.041 29 14.103 41.177 27.697-22.883-16.312-26.394-18.691-42.367-24.015-6.5138-2.1523-13.31-3.5683-20.334-4.1914 12.801 5.664 23.789 13.141 32.681 22.486 11.045 11.611 18.974 26.111 23.336 43.783-12.517-25.148-14.556-28.886-26.168-41.064-9.2889-9.7987-20.957-17.389-34.664-22.996 19.824 26.564 22.996 74.878 22.996 75.048-7.703-25.941-7.7598-48.314-23.109-69.158 0.33969 6.1171 0.56627 9.4023 0.56627 9.4023s-34.777-38.232-50.41-21.863c-4.5311 4.7011-4.5311 10.535-2.3221 16.482 11.045 5.9472 26.224 18.181 29.17 41.687 1.0194 8.2128 0.50972 15.066-1.133 20.787-2.039 7.0234-5.7771 12.234-10.422 15.859-4.6445 3.625-10.139 5.6074-15.689 6.2871-5.0411 0.62303-10.139 0.16991-14.67-1.1328 5.4374 0.11323 11.385 0.73633 18.974-2.7187-4.4746-0.0566-10.365-0.8496-15.576-3.9082-3.0585-1.8691-4.9843-4.1914-6.0038-6.8535-1.5859-4.1347-0.79285-9.0058 1.5293-13.933 2.209-4.8144 5.8906-9.7421 10.139-14.16 2.5488-2.6621 5.3242-5.1542 8.2128-7.3632-16.652 4.1347-40.554 11.724-61.058 24.469 2.6055 16.596 9.4023 31.039 19.428 42.763 15.236 17.842 37.892 29.453 65.023 32.965 14.613 1.8691 31.379 0.90624 50.75-4.4746 19.428-5.4375 41.404-15.293 66.269-31.322 102.86-66.439 124.1-293.11 127.95-415.06 0.28314-8.8925 2.0957-51.146 4.248-79.353 0.0562 0.62304 4.3046 118.04-14.5 240.78h0.1699s0.96288 5.7206 15.633 7.3632c11.045 1.1894 20.107-1.416 24.412-3.0586-1.3027-1.416-2.5487-2.7187-3.6249-4.0214-17.275-13.367 3.285-76.464 6.3436-84.394 8.2128-21.07 22.09-38.912 39.705-49.56 10.478-6.3437 38.855-14.5 56.98-2.2656-1.2461-0.33985-2.4921-0.62305-3.7949-0.90624 3.6249 3.455 7.3632 7.7597 11.158 12.801-3.2852-19.484-11.498-37.779-24.582-53.865-12.687-15.633-45.425-40.838-58.339-47.125 26.168 11.271 46.728 26.564 61.398 44.689 15.123 18.578 24.015 40.101 26.394 63.04 1.1328 1.6992 2.2657 3.3984 3.3984 5.1542 21.013-41.574 30.869-79.636 30.132-113.05 0.33981-14.783-9.0625-64.4-31.265-88.359zm-396.59 494.19c-5.947-5.38-15.576-15.07-19.654-24.7 7.0234 4.248 15.463 11.498 20.674 24.469-0.33993 0.0566-0.67962 0.16993-1.0195 0.22656zm314.12-558.08c3.738 2.209 7.0798 5.2109 9.6287 8.9492 4.0214 6.0038 6.1171 13.537 5.7774 21.75-0.28337 7.6464-2.6622 15.973-7.4766 24.242 3.6817 0.62304 6.9667 1.8125 8.6094 3.5683-8.666-2.4922-16.256-2.0391-22.996 0.62304-6.8535 2.7187-12.914 7.6464-18.521 14.103 2.1524-9.6288 11.725-15.633 17.049-17.728 2.7186-1.0762 7.9862-1.4726 13.027-0.96288 4.6444-7.873 7.4197-16.709 7.7029-23.959 0.33993-7.6464-1.5858-14.613-5.3808-20.164-2.2656-3.3984-5.3242-6.1738-8.7225-8.2128-5.3808-3.1718-11.668-4.7578-17.955-4.6445-21.24 0.39648-27.357 13.99-33.021 31.435 0-2.6621 0.39625-6.1738 1.4159-9.9687 4.0781-14.84 15.972-23.789 31.549-24.072 6.7401-0.11335 13.594 1.5859 19.314 5.041zm-31.605 31.265c0 6.5702 5.3242 11.951 11.951 11.951 2.7187 0 5.2674-0.96288 7.3065-2.4922 0.0562 0.79297 0.11358 1.6426 0.11358 2.4922 0 10.705-8.6659 19.371-19.371 19.371s-19.371-8.6659-19.371-19.371 8.666-19.428 19.371-19.428c0.84964 0 1.6992 0.0566 2.4921 0.16992-1.5293 2.039-2.4921 4.5878-2.4921 7.3066zm112.43 30.982c0.56639 0.50977 1.1329 1.0762 1.6426 1.6426-0.50971-0.56642-1.0762-1.1328-1.6426-1.6426zm-95.5-102.28s-18.181 6.2871-34.55 2.6621c-16.369-3.6816-19.031-17.558-12.574-23.336 6.457-5.7773 25.092-4.5879 34.211 3.7949 9.1757 8.4394 12.914 17.049 12.914 16.879z" class="fil5" fill="#8c7e57"/>
<path id="path56" d="m431.96 652.12c4.7011 8.2694 7.8729 14.443 10.139 18.861 3.7383 7.4198 4.8711 9.6288 6.6269 9.6288 3.0586 0 16.992-5.2675 36.703-15.519 13.65-7.08 29.906-16.539 47.011-28.32 36.42-24.978 38.232-25.545 38.289-25.545l-1.3027-0.11323-0.39637-1.2461-24.865-79.07-3.0018-9.4023 6.3436 7.5898c0.11382 0.11323 36.306 43.443 41.404 43.443 1.8691 0 6.0605-4.7011 10.648-10.875 44.293-59.472 77.824-193.14 82.921-257.09 3.285-41.064 0.73627-76.068-4.1348-104.16-8.5526-49.503-23.789-77.2-26.847-79.07-4.248-2.5488-60.039 16.369-60.208 16.426l-25.205 8.496 23.676-12.121c0.16996-0.0566 48.371-24.638 51.203-37.722 1.82-8.333-10.08-50.586-33.02-91.934-18.46-33.417-120.7-132.19-155.42-114.81-4.9843 3.7949-27.64 47.918-48.597 84.677 22.713-21.863 59.472-54.828 71.876-51.599 18.408 4.8144 122.74 113.34 118.72 160.06-3.9648 46.728-93.796 89.265-93.796 89.265l133.78-11.894s8.0429 0 8.0429 123.59c0 123.65-60.095 235.79-60.095 235.79l-65.193-48.031s11.385 116.79 0 133.61c-7.7031 11.385-53.298 33.814-85.3 47.068z" class="fil6" fill="#a39469"/>
<path id="path58" d="m338.84 144.57c-21.24 0.39647-27.357 13.991-33.021 31.437v-0.34061c-0.50987 5.7773 0.11382 12.008 1.5298 17.558-0.16996-0.96287-0.22508-1.9824-0.22508-3.0019 0-10.705 8.6661-19.426 19.371-19.426 0.84963 0 1.6981 0.057 2.4911 0.17029-1.5293 2.0391-2.4911 4.587-2.4911 7.3057 0 6.5703 5.3232 11.95 11.95 11.95 2.7187 0 5.2667-0.96174 7.3057-2.491 0.0562 0.79296 0.11534 1.6414 0.11534 2.491 0 10.705-8.6661 19.371-19.371 19.371-7.5332 0-14.104-4.3045-17.276-10.648 1.9258 4.871 4.4729 8.6084 7.4182 10.308 7.3066 4.1348 16.143 4.0212 19.824 3.738 3.8515-5.4375 9.8564-8.9486 13.708-10.478 2.7187-1.0762 7.9857-1.471 13.027-0.9612 4.6444-7.873 7.4207-16.711 7.704-23.961 0.33976-7.6464-1.5856-14.611-5.3805-20.162-2.2656-3.3984-5.3245-6.1759-8.7229-8.2149-5.3808-3.1718-11.67-4.7576-17.957-4.6443zm-386.35 18.116c-0.50632 0.0204-1.0143 0.0799-1.5241 0.17896-2.0956 0.45313-4.1924 1.586-6.0617 3.4551-2.6619 2.6621-4.8699 6.684-5.9461 12.178-3.3418 16.312 2.4345 28.152 3.3973 29.965 0.50987 0.16991 1.0208 0.28325 1.4173 0.45318 2.4921 0.90624 7.0242 4.8696 8.8933 8.3246 0.62307 0.0566 1.5847-0.11159 2.491-0.50803 0.73642-2.5488 1.473-5.1552 2.266-7.704-1.2461 0.62304-2.549 0.9612-3.9084 0.9612-6.2304 0-11.272-7.022-11.272-15.688 0-1.5859 0.16996-3.1158 0.45312-4.5318 0.79288 2.6621 2.5493 4.5318 4.5318 4.5318 2.7753 0 5.0399-3.513 5.0399-7.8743 0-2.9453-1.0744-5.548-2.6036-6.9073 1.1894-0.62302 2.4911-0.96407 3.8505-0.96407 4.7579 0 8.8353 4.1908 10.478 10.025 0.73628-2.039 1.417-4.0763 2.1533-6.0587-0.45312-4.1914-1.0197-7.2524-4.8146-14.389-1.1895-2.1523-2.7183-3.6793-4.474-4.5289-1.3594-0.67968-2.8486-0.97896-4.3673-0.9179z" fill="#fefefe"/>
<path id="path62" d="m34.941-92.002c-4.163-0.02837-9.4015 1.9663-16.17 6.4975v27.641l-3.51-4.9272-10.706-14.839c-9.9687 5.1543-71.139 41.177-130.67 180.06-61.001 142.22-34.947 255.16-31.379 268.98 7.42 0.0566 40.101 0.28318 43.329 0h0.56573c3.0586-0.22657 3.0596-0.1707 5.6084-0.3406-8.4392 10.762-38.177 38.006-41.972 41.574-0.0562 2.7187 0.22849 13.309 6.4023 37.155 5.6074 21.41 15.803 54.715 20.448 69.668 4.8711-29.566 13.65-62.699 14.216-64.908-8.9493-20.787-5.1538-46.107 4.0785-70.915 7.8729-21.183 20.39-43.045 31.945-60.83-6.6269-40.724-7.704-79.524-3.7958-115.6 7.299-67.81 32.164-126.14 70.85-170.04 20.163-22.94 44.067-41.97 71.197-56.357l-0.62352 0.22514c-3.9648-11.781-6.628-23.278-9.0635-33.7-3.3984-14.5-6.2858-26.792-11.044-33.702-2.4638-3.5683-5.5528-5.6205-9.7158-5.6488zm-53.665 637.41c-5.3242 3.8515-24.468 17.276-43.046 26.452-3.7949 1.9258-7.987 3.5108-12.348 4.7569 5.4942 8.0429 11.045 15.352 16.652 22.035 5.7206 6.7968 11.441 13.027 17.218 18.748 4.8143-6.3437 15.633-20.448 21.467-27.641 5.6074-6.9667 10.537-13.877 12.576-16.822-4.4178-9.1191-8.6104-18.296-12.519-27.528z" fill="#bfad7c"/>
<path id="path164" d="m32.252 642.61c-13.424-21.75-25.658-43.62-36.477-65.65-2.4921 3.5117-6.7401 9.3456-11.555 15.293-7.4198 9.1757-23.732 30.699-23.789 30.756l-1.6993-1.3027-0.11379 0.11335c-0.22656-0.2832-0.50987-0.5664-0.79303-0.84961l-0.50972-0.33983s0-0.0566 0.05616-0.0566c-3.7383-3.6816-7.4198-7.5332-11.102-11.611-6.457 16.879-42.537 115.32-16.369 162.95 1.7559 3.1718 3.7383 6.1738 5.9473 9.119 1.1894-4.0214 4.078-9.9686 10.818-18.238 9.2323-11.328 15.916-12.121 19.767-10.932-3.5683-11.611-5.041-24.469-4.0214-38.289 0.90623-12.801 3.6815-25.375 8.0429-35.853 4.1347-9.912 9.7988-18.012 16.709-22.826 14.217-9.9687 29.056-13.99 43.33-12.517 0.56632 0.0566 1.1894 0.11323 1.7557 0.22655z" class="fil12" fill="#80724a"/>
<path id="path166" d="m170.85 781.37c-19.031 12.291-36.476 21.013-52.392 26.904 2.0958 2.039 6.7401 7.08 9.459 13.594 2.4921 6.0038 2.7753 11.498 2.7187 14.273 69.101-8.496 76.521-36.646 79.183-46.898l0.11382-0.33985c2.0958-8.0429 1.6993-35.174 1.4161-46.332-11.895 15.803-25.318 29-40.498 38.798z" class="fil12" fill="#80724a"/>
</g>
<g fill="#8c7e57">
<ellipse id="ellipse168" rx="19.767" ry="25.261" cy="617.8" cx="75.695" class="fil5"/>
<ellipse id="ellipse170" rx="19.767" ry="49.787" cy="537.76" cx="68.445" class="fil5"/>
<ellipse id="ellipse172" ry="42.919" rx="19.888" transform="matrix(.99071 -.13601 .047368 .99888 0 0)" cy="442.55" cx="39.226" class="fil5"/>
<ellipse id="ellipse174" ry="49.738" rx="19.951" transform="matrix(.98757 -.15716 .040874 .99916 0 0)" cy="345.89" cx="42.298" class="fil5"/>
<ellipse id="ellipse176" ry="49.738" rx="19.951" transform="matrix(.98757 -.15716 .040874 .99916 0 0)" cy="241.6" cx="47.681" class="fil5"/>
<ellipse id="ellipse178" ry="43.351" rx="21.505" transform="matrix(.99220 -.12465 -.19856 .98009 0 0)" cy="153.9" cx="100.6" class="fil5"/>
</g>
<g>
<path id="path180" d="m402.99 385.67c-11.642 0.15663-22.655 2.8838-31.916 8.4487-16.822 10.195-30.133 27.358-38.006 47.636-13.367 34.324-12.687 61.171-11.214 74.255v0.0578c2.1523 4.3613 6.8537 9.6852 13.367 15.293 13.537 11.611 34.548 24.243 56.298 31.89 21.58 7.6463 43.784 10.422 59.926 2.5487 4.418-2.1523 8.4409-5.1554 11.783-9.0636 0.62306-0.67969 1.1875-1.417 1.6972-2.1533 14.726-19.824 10.479-54.714-1.1891-87.905-11.781-33.418-31.094-65.079-46.443-78.333-0.84965-0.73632-1.701-1.4166-2.4941-1.983-3.9789-0.50975-7.9278-0.74207-11.808-0.68986zm-509.22 74.266c-4.4746 17.332-19.824 79.805-15.463 99.006 0.3966 1.6426 0.90796 3.1158 1.5877 4.5318 3.0018 6.0038 8.8902 9.5732 16.084 11.159 7.4764 1.6425 16.313 1.1897 24.809-0.7361 5.5506-1.2461 10.931-3.1718 15.746-5.5507 19.314-9.5155 39.253-23.79 43.162-26.622-3.1718-7.4765-6.1738-15.008-9.0059-22.598-4.1913-1.8691-50.466-23.336-72.782-52.846-1.5294-2.039-2.9469-4.1921-4.1365-6.3444zm84.678 316.68c-2.3789 3.9082-7.3637 12.573-9.1761 18.69-1.8125 6.1171-2.267 10.65-2.3235 12.519 11.045 6.6269 23.619 12.12 37.1 16.594 15.18 4.9843 31.492 8.6106 48.031 10.876 0.50983-2.4922 1.0761-7.136-0.45316-12.12-0.90632-3.0019-1.471-4.7022-1.8674-5.6084-27.471-3.8515-50.469-15.86-65.988-34.098-1.8691-2.209-3.6803-4.4736-5.3228-6.8525zm421.86 1.4404c-4.4099 0.14868-9.7511 2.2411-15.189 6.6591-6.0604 4.9843-12.177 12.858-17.047 24.186-9.289 21.693-11.613 42.195-12.123 47.916 24.639 3.5117 54.206 4.5323 83.659 2.6065-0.79309-4.1914-2.663-13.876-6.7977-30.132-2.8886-11.555-8.0428-24.13-13.65-33.985-5.0976-8.8925-10.477-15.462-14.782-16.765-1.232-0.36816-2.6-0.53445-4.07-0.48489z" fill="#f0e4c8"/>
<path id="path182" d="m389.09 387.22c-6.457 1.3594-12.517 3.6222-18.012 6.9073-16.822 10.195-30.133 27.358-38.006 47.636-13.367 34.324-12.687 61.171-11.214 74.255v0.0578c2.1523 4.3613 6.8537 9.6852 13.367 15.293 13.537 11.611 34.548 24.243 56.298 31.89 21.58 7.6463 43.784 10.422 59.926 2.5487 2.2658-1.0762 4.4181-2.4378 6.4571-4.0238-0.33981-0.73632-0.51089-1.5296-0.51089-2.2659 0 0-42.933-22.259-78.05-71.536-32.568-45.652-12.402-91.472 9.7447-100.76zm-463.2 105.58v6.8525s-0.90643 28.719-21.92 48.882c-11.668 11.158-19.71 13.764-24.581 13.82 0.16979 0.39646 0.34098 0.73501 0.51089 1.1315 3.0018 6.0038 8.8902 9.5732 16.084 11.159 7.4764 1.6425 16.313 1.1897 24.809-0.7361 5.5506-1.2461 10.931-3.1718 15.746-5.5507 19.314-9.5155 39.253-23.79 43.162-26.622-3.1718-7.4765-6.1738-15.008-9.0059-22.598-2.7753-1.2461-24.187-11.16-44.804-26.339zm36.924 264.03c-3.4373 0.13537-7.9084 2.0969-13.133 8.4689-9.289 11.385-10.762 17.163-10.818 19.541 6.6268 7.7597 14.837 14.67 24.353 20.731 0.28314-2.6054 0.90761-6.5717 2.3235-11.329 2.2657-7.6464 8.9497-18.69 10.536-21.239-2.8319-4.5312-5.2683-9.3452-7.2508-14.386-1.2885-0.89207-3.3362-1.8921-6.0097-1.7867zm383.9 20.696c-2.9961 0.12074-6.4116 1.2191-10.129 3.7466-3.5684 2.3789-7.4188 6.1153-11.497 11.609-15.519 20.674-24.866 35.685-27.811 40.613 11.668 9.7988 27.472 17.387 48.089 21.522 1.9259 0.39647 3.796 0.73858 5.6084 1.0218 0.3966 0.0566 0.73513 0.1137 1.1316 0.17032 0.56639-6.287 3.001-26.962 12.403-48.825 1.3026-3.1152 2.7195-6.0049 4.2487-8.6104-1.0194-1.9258-4.0202-7.4749-8.0418-13.422-1.0194-1.5293-2.5499-3.2283-4.4191-4.6443-2.2656-1.6992-5.0394-3.0023-8.3246-3.1722-0.41065-0.0213-0.83032-0.026-1.2585-0.009zm109.25 0.41853c-3.4196-0.0566-6.4634 0.66585-9.0405 1.9686-8.6092 4.3046-16.593 21.41-18.349 25.375 3.2851 7.4765 6.1736 15.463 8.0995 23.109 4.1914 16.765 6.1161 26.677 6.8524 30.755 13.367-1.0195 26.678-2.6627 39.478-4.985 12.064-2.1523 23.617-4.9262 34.265-8.3246-2.7187-6.9667-11.837-28.208-26.847-46.276-8.2127-9.8554-16.084-15.803-23.164-18.918-4.0781-1.8125-7.8751-2.648-11.295-2.7047zm-340.56 31.46c-4.0782 1.416-8.0408 2.6618-11.892 3.738-18.578 5.2109-34.949 6.4028-49.336 4.9301 0.28325 0.96289 0.6795 2.2639 1.1892 3.9631 1.6993 5.5507 1.19 10.761 0.62353 13.763 23.902 3.0019 48.315 3.2293 70.745 0.79381 0.11358-2.0391 0.0562-7.3075-2.4362-13.255-2.662-6.3437-7.3072-12.064-8.8932-13.933z" fill="#ded1b4"/>
<path id="path200" d="m597.63 755.15c-1.8692 16.765-6.7402 32.965-15.18 47.578 10.988 1.2461 30.189 0.79297 49.334-2.2656 0.45311-4.7011 1.246-17.842-1.6993-30.869-1.6425-7.3066-4.1347-12.517-6.9667-16.029-3.2852-4.0214-7.0235-5.7773-10.422-5.7773-4.8143-0.0566-11.951 4.9277-15.066 7.3632z" class="fil15" fill="#d4c6a7"/>
</g>
<g clip-rule="evenodd">
<g fill-rule="evenodd" fill="#a39469">
<path id="path40" style="image-rendering:optimizeQuality;shape-rendering:geometricPrecision" d="m38.312 745.3zm5.8339-22.713c-3.1152 1.5859-5.0976 5.5507-6.1171 9.7421-1.0195 4.3047-1.0195 8.8925-0.16992 11.725 0.11328 0.45312 0.2832 0.90624 0.45312 1.2461 1.6426 3.2285 4.1347 3.8515 5.6074 3.9648 1.7558-2.4355 3.1718-5.3242 4.1347-8.7226 0.96289-3.2851 1.4726-7.0234 1.5293-11.328l-0.45312-0.11329s0.22656-0.56637 0.45312-1.3594c-0.0566-1.6426-0.16992-3.3984-0.39648-5.2675-0.62304-0.6797-1.8125-0.90624-3.7949-0.33983-0.45313 0.11325-0.8496 0.28319-1.2461 0.45312z" class="fil6"/>
<path id="path42" style="image-rendering:optimizeQuality;shape-rendering:geometricPrecision" d="m37.406 745.8zm-0.39649-13.707c1.0762-4.4746 3.2285-8.6659 6.6835-10.422 0.45312-0.22658 0.90624-0.39651 1.3594-0.56641 1.8125-0.50976 3.0586-0.50976 3.9648-0.22658-0.33985-2.6621-0.79297-5.2109-1.3594-7.5898-0.50976-0.22658-1.1328-0.28322-1.7558-0.22658-1.4726 0.16994-3.1718 1.1895-4.9843 2.7187-1.8691 1.5293-3.7949 3.6816-5.6074 6.1171-5.6074 7.5898-10.025 18.181-7.4198 24.299 3.0586 7.1933 8.3261 8.2695 10.932 8.3261l0.16992-0.16994c1.5293-1.1894 2.9453-2.5488 4.1914-4.1347-1.6992-0.22654-4.1347-1.2461-5.7773-4.4179-0.22656-0.45313-0.39649-0.90625-0.5664-1.4727-0.84961-3.0019-0.84961-7.7597 0.16991-12.234z" class="fil6"/>
<path id="path44" style="image-rendering:optimizeQuality;shape-rendering:geometricPrecision" d="m45.789 712.05zm-18.861 34.55c-2.7187-6.5136 1.7558-17.502 7.5331-25.318 1.8691-2.4922 3.8515-4.7011 5.7773-6.287 1.9258-1.6992 3.8515-2.7187 5.5507-2.9453 0.50976-0.11329 1.0762-0.0566 1.5293 0.0566-0.39648-1.6992-0.90624-3.2851-1.416-4.7578-6.7402 1.3027-16.312 7.6464-23.846 15.519-4.1347 4.248-7.5898 8.8925-9.6855 13.424-2.039 4.3613-2.7754 8.5526-1.4726 11.951 0.79296 2.0957 2.3789 3.9648 4.9277 5.4941 7.2499 4.3047 15.916 3.7382 19.484 3.2851 0.73633-0.50976 1.4726-1.0195 2.2656-1.5859-3.0586-0.39652-7.8163-2.1524-10.648-8.8359z" class="fil6"/>
</g>
<path id="path102" style="image-rendering:optimizeQuality;shape-rendering:geometricPrecision" d="m40.521 755.49c-0.0566 0-9.1191 1.586-13.594-8.8925-2.7187-6.5136 1.7558-17.502 7.5331-25.318 1.8691-2.4922 3.8515-4.7011 5.7773-6.287 1.9258-1.6992 3.8515-2.7187 5.5507-2.9453 1.5293-0.22658 2.8886 0.28319 3.8515 1.6426l-0.84961 0.56641c-0.73632-0.96289-1.6992-1.3594-2.8886-1.1895-1.4726 0.16994-3.1718 1.1895-4.9843 2.7187-1.8691 1.5293-3.7949 3.6816-5.6074 6.1171-5.6074 7.5898-10.025 18.181-7.4198 24.299 4.1347 9.7421 12.404 8.2128 12.404 8.2128l0.22656 1.0761z" class="fil11" fill="#4a422c"/>
<path id="path104" style="image-rendering:optimizeQuality;shape-rendering:geometricPrecision" d="m45.336 750.22s-5.1542 1.0762-7.9296-4.4179c-0.22656-0.45313-0.39649-0.90625-0.5664-1.4727-0.84961-3.0019-0.84961-7.7597 0.16991-12.234 1.0762-4.4746 3.2285-8.6659 6.6835-10.422 0.45312-0.22658 0.90624-0.39651 1.3594-0.56641 9.289-2.7187 5.0976 8.3261 5.0976 8.3261l-1.0195-0.33987c0-0.0566 3.5117-9.0624-3.7382-6.9667-0.45313 0.11325-0.8496 0.28319-1.2461 0.45312-3.1152 1.5859-5.0976 5.5507-6.1171 9.7421-1.0195 4.3047-1.0195 8.8925-0.16992 11.725 0.11328 0.45312 0.2832 0.90624 0.45312 1.2461 2.4355 4.8144 6.7968 3.9082 6.7968 3.9082l0.22655 1.0195z" class="fil11" fill="#4a422c"/>
</g>
<path id="path66" d="m346.97-150.57c-25.91-0.22758-50.915 1.2656-74.679 4.1277-105.28 12.714-186.26 52.525-213.67 89.212-3.1047-13.242-6.0262-24.493-10.738-31.327-6.457-9.3456-15.744-10.933-32.17 0.39545l-0.85152 0.62347v17.558l-8.0995-11.272-0.96124-1.3018-1.4171 0.67832c-0.2267 0.11321-68.477 29.792-134.12 182.78-65.589 152.93-31.267 272.61-31.154 273.01l0.39847 1.4173h1.4721c0.096 0 27.596 0.19862 39.712 0.0895-12.109 11.808-33.835 34.864-33.936 34.915l-0.56569 0.50802-0.055 0.79378s-0.96346 10.365 6.5697 39.138c7.4029 28.425 22.731 77.186 22.858 77.522-1.8208 13.138-2.5925 24.821-1.0536 31.566 0.45316 1.9258 1.0775 3.683 1.8704 5.3255 3.5684 7.2499 10.479 11.439 18.805 13.252 7.9864 1.8125 17.443 1.303 26.449-0.73603 0.07494-0.0165 0.14789-0.041 0.22236-0.0579 5.8548 8.6196 11.716 16.429 17.677 23.507 1.2897 1.557 2.5869 3.0592 3.8852 4.5519-1.5684 3.8131-46.071 115.18-16.912 168.09 2.4428 4.4635 5.357 8.6966 8.6768 12.712v0.004c0.10539 0.94516 0.32904 1.3884 0.32904 1.3884l0.60316-0.27707c15.422 18.047 39.258 31.498 66.741 40.491 38.855 12.801 85.13 16.763 125 12.345 74.765-8.3827 82.809-39.138 85.754-50.239l0.055-0.34057c2.622-9.9115 1.5423-46.654 1.3623-52.34 4.6235-6.5327 9.002-13.466 13.148-20.748 2.2942-1.3374 7.8356-3.6344 18.964-3.432 11.787 0.25073 20.485 2.6842 24.252 3.9689-0.68103 16.008-1.6147 30.34-3.0106 37.38-0.22658 1.1328-0.45468 2.3227-0.68126 3.6254-3.455 21.127-0.16803 43.046 11.953 61.34 12.121 18.238 33.021 32.795 64.966 39.195 1.7558 0.33984 3.682 0.67912 5.721 1.019 37.892 6.1738 88.923 6.1725 133.33-1.8704 37.213-6.6835 69.895-19.03 86.491-38.061 3.7602-4.3092 7.1087-8.84 10.074-13.552 12.519 1.7558 37.926 1.0505 61.179-3.7236 16.992-3.5117 32.91-9.232 41.972-17.841 16.766-15.916 19.142-37.211 21.634-59.811 0.73641-6.5136 1.4727-13.086 2.5488-19.599 2.8885-17.049 7.7045-27.299 24.244-62.189 11.441-24.129 28.432-60.039 54.09-117.98 36.25-81.618 59.02-209 32.796-331.97-19.63-92.27-66.76-182.1-156.42-248.37l-0.11241-0.05779c-6.12-4.019-12.18-7.814-18.24-11.439-100.32-60.443-204.4-83.173-296.94-83.983zm-0.0176 3.9256c91.901 0.80351 195.32 23.402 294.97 83.405 6.0604 3.6816 12.121 7.4779 18.012 11.329 88.755 65.646 135.48 154.57 154.97 245.99 25.998 122.12 3.3984 248.59-32.568 329.59-25.715 57.999-42.705 93.855-54.09 117.93-16.709 35.287-21.581 45.595-24.526 63.153-1.076 6.6835-1.8691 13.311-2.5487 19.824-2.4921 21.863-4.7568 42.479-20.503 57.432-8.4962 8.0429-23.678 13.481-40.047 16.822-2.1493 0.44467-4.3182 0.84131-6.4918 1.2152 0.448-5.0919 1.1378-17.872-1.8329-30.952-1.6992-7.703-4.3625-13.197-7.4211-16.935-3.7383-4.6444-8.1554-6.6284-12.12-6.685-4.7205-0.0372-11.021 3.8996-14.848 6.6447 0.49461-5.4774 0.68688-11.007 0.57423-16.557-0.29426-15.036-2.7404-30.229-6.9534-44.893 7.4844-3.5381 27.304-15.434 58.214-52.072 39.875-47.351 48.257-71.935 48.314-71.992-21.863 34.041-42.82 59.361-51.316 69.443-30.158 35.815-49.134 47.389-56.356 50.871-5.523-17.824-13.624-34.775-23.678-49.569 13.537 28.83 27.583 84.45 27.866 98.27 0.62307 29.849-7.4745 58.961-27.355 81.731-10.058 11.521-26.414 20.521-46.236 27.251-2.6365-6.7462-11.918-28.698-27.569-47.526-8.666-10.365-17.048-16.711-24.581-20.052-9.3456-4.0781-17.558-3.682-23.675-0.62348-8.1913 4.0746-15.489 17.558-18.748 24.293-1.2419-2.5427-2.5269-4.9994-3.8506-7.2999-5.5508-9.7421-11.726-16.991-17.05-18.577-6.0605-1.8125-14.557 0.1123-22.826 6.8525-3.9857 3.2297-7.9458 7.6043-11.586 13.211-1.4802-2.718-3.9333-7.0215-7.1613-11.739-1.246-1.8692-3.057-3.8515-5.3226-5.5507-2.7754-2.0957-6.2884-3.7366-10.423-3.9631-4.0781-0.16993-8.7229 0.96124-13.82 4.4163-3.9082 2.6054-8.042 6.627-12.403 12.461-15.498 20.649-24.593 35.217-27.676 40.344-4.4488-4.1281-8.2544-8.5898-11.407-13.327-11.498-17.389-14.612-38.343-11.327-58.564 0.22658-1.0762 0.3952-2.209 0.67845-3.4551 8.7225-43.783 1.5864-109.2 1.5298-109.43-0.70035 6.2677-1.0809 38.65-2.2024 67.197-4.4675-1.4172-13.047-3.5894-24.362-3.8188-8.1974-0.16233-13.09 0.81347-15.994 1.8762 27.38-50.597 44.196-116.64 54.462-181.64 2.5606 2.3814 7.3326 5.0238 16.19 5.9952 4.5304 0.50675 8.7428 0.39207 12.504-0.0317 4.6518 3.5521 78.744 60.468 102.7 99.096 11.724 18.861 17.786 30.757 21.524 38.064 4.6445 9.0058 6.0025 11.722 10.137 11.722 3.5117 0 18.24-5.3781 38.517-15.913 13.707-7.1366 30.132-16.709 47.408-28.547 30.189-20.73 36.646-28.321 37.383-31.096l0.73618-0.22803-21.978-69.835c10.988 12.744 32.965 37.495 38.119 37.495 3.2851 0 8.553-5.382 13.82-12.519 44.746-60.095 78.505-194.56 83.659-259.13 3.3418-41.404 0.7336-76.746-4.194-105.12-8.7228-50.75-25.262-79.694-28.66-81.733-3.6817-2.209-27.074 4.4736-44.406 9.8544 14.726-8.7792 33.703-21.579 35.685-30.585 1.95-8.903-10.06-52.572-33.39-94.712-19.38-34.947-123.02-135.2-160.63-116.4-3.365 1.6824-47.525 81.106-67.212 116.69-3.5045-3.2613-14.221-12.712-32.704-23.294-20.164-11.498-40.327-16.654-44.688-17.674-26.054-45.79-71.474-43.158-108.87-12.412-17.108 0.02971-33.629 1.3793-49.497 3.9747-28.748 4.7435-55.364 13.561-79.502 25.978-3.5461-10.776-6.1415-21.56-8.4602-31.463 24.662-36.688 106-77.521 212.97-90.407 23.591-2.8497 48.421-4.3353 74.154-4.1103zm114.87 34.19c40.882-0.31816 129.1 86.035 146.12 116.84 22.939 41.347 34.834 83.602 33.021 91.928-2.8321 13.084-51.033 37.667-51.203 37.723l-23.675 12.12 25.205-8.4978c0.17002-0.0565 55.961-18.973 60.209-16.424 3.0586 1.8691 18.294 29.566 26.847 79.069 4.871 28.094 7.4214 63.097 4.1363 104.16-5.0975 63.947-38.63 197.62-82.923 257.09-4.5877 6.1738-8.779 10.873-10.648 10.873-5.0976 0-41.29-43.328-41.404-43.441l-6.3443-7.5914 3.0018 9.4041 24.867 79.069 0.39543 1.247 1.3017 0.11264c-0.0562 0-1.8695 0.56702-38.289 25.545-17.105 11.781-33.359 21.239-47.009 28.319-19.711 10.252-33.646 15.521-36.704 15.521-1.7558 0-2.8891-2.2094-6.6274-9.6293-3.7948-7.3632-9.9106-19.429-21.692-38.347-24.766-39.917-98.396-96.262-100.53-97.886 4.6852-0.9856 8.0804-2.2707 9.8833-3.0482 0.93243 0.86428 1.8911 1.7324 2.9066 2.6065 13.82 11.894 35.345 24.811 57.548 32.684 22.486 7.9296 45.766 10.705 62.928 2.3784 4.9277-2.4355 9.2885-5.7212 13.027-10.082 0.67974-0.73632 1.3022-1.5288 1.9253-2.3784 15.576-21.07 11.386-57.206-0.67834-91.53-6.2022-17.666-14.528-34.849-23.308-49.217 22.08-42.963 32.423-82.382 31.633-116.97-0.76369-34.205-12.383-63.716-34.288-87.252 21.573 24.3 30.707 72.745 30.38 87.31 0.72131 33.405-9.1331 71.493-30.144 113.02-1.1148-1.7419-2.2328-3.4314-3.354-5.0715-2.4276-22.965-11.286-44.473-26.429-63.093-14.67-18.125-35.228-33.417-61.395-44.688 12.914 6.2871 45.651 31.492 58.339 47.125 13.049 16.098 21.321 34.361 24.604 53.888-3.8148-5.031-7.5901-9.3657-11.197-12.807 1.2706 0.26985 2.5408 0.56442 3.81 0.88904-18.125-12.234-46.501-4.0778-56.979 2.2659-17.615 10.648-31.493 28.491-39.706 49.561-3.11 7.973-23.603 71.096-6.3126 84.38 1.0864 1.3038 2.3001 2.6393 3.6341 4.0007-4.3147 1.6348-13.327 4.305-24.451 3.0914-14.67-1.6426-15.633-7.3634-15.633-7.3634l-0.16159 0.0348c18.751-122.74 14.523-240.17 14.493-240.81-2.1522 28.207-3.9656 70.462-4.2489 79.355-3.8515 121.95-25.09 348.62-127.95 415.06-24.865 16.029-46.843 25.884-66.271 31.321-19.371 5.3808-36.137 6.3431-50.75 4.474-27.131-3.5117-49.784-15.122-65.021-32.964-14.67-17.162-22.372-40.101-20.39-67.062 0.9062-12.404 3.5675-24.524 7.7588-34.606 3.9082-9.289 9.0621-16.823 15.293-21.184 13.48-9.3456 27.358-13.199 40.725-11.783 13.593 1.4161 26.733 8.2135 38.344 19.995 0.01522 0.0105 0.01874 0.0191 0.0281 0.0289l-0.0281 0.0836c0.05504 0.0185 0.10656 0.0393 0.16159 0.0578 22.88 23.4 21.723 48.271 30.481 77.822 0-0.15791-3.1892-48.487-23.051-75.048 13.753 5.6066 25.401 13.199 34.719 22.997 11.611 12.178 13.651 15.918 26.169 41.066-4.3613-17.672-12.292-32.174-23.337-43.785-8.9264-9.3683-19.895-16.797-32.675-22.465 7.0332 0.63648 13.82 2.0144 20.329 4.171 15.972 5.3242 19.482 7.7031 42.365 24.015-12.178-13.594-25.996-22.655-41.176-27.696-10.069-3.3738-20.832-4.912-32.092-4.8377-3.6276-3.6118-7.4024-6.7711-11.298-9.4475 23.606-7.4289 47.057-11.192 70.349-10.92 25.658 0.39648 31.831 1.5843 72.442 10.42-23.789-9.3456-47.916-13.989-72.271-14.328-24.923-0.33531-49.956 3.8033-75.046 11.964-5.5187-3.2062-11.239-5.4879-17.079-6.8352-0.33981-0.54414-0.72482-1.1625-0.87728-1.3914-48.824-78.617-81.281-158.93-91.646-241.57-8.3261-65.646-2.7753-132.76 19.654-201.7 2.9453-8.9491 14.274-41.006 18.352-57.715-5.77 12.76-10.94 25.456-15.57 38.096-0.42283-3.7532-1.4652-8.1051-3.7438-12.38-1.416-2.6621-3.3428-4.5334-5.6084-5.6661-2.3224-1.1328-4.9265-1.4161-7.5886-0.90637-2.5488 0.56642-5.0996 1.9274-7.3086 4.1363-3.002 3.0019-5.4938 7.4771-6.7398 13.538-2.9305 14.433 0.93501 25.542 2.8604 29.918-3.1924-0.32743-6.9846 0.0383-9.996 2.2514 4.9845-0.67969 9.628-0.50856 13.763 0.96408 4.0782 1.416 7.6469 4.1918 10.536 8.723-0.11358-3.6816-6.6265-9.7983-9.7419-10.931-0.42517-0.15666-0.9151-0.30937-1.446-0.4503-0.74238-1.4184-6.7767-13.246-3.3686-29.967 1.0762-5.4941 3.2842-9.516 5.9461-12.178 1.8692-1.8691 3.966-3.002 6.0617-3.4551 2.039-0.39646 4.0789-0.1673 5.8914 0.73894 1.7557 0.84961 3.2844 2.3766 4.474 4.5289 3.8033 7.1455 4.3447 10.232 4.7973 14.427-0.72505 2.0204-1.4193 4.0384-2.1157 6.0558-1.6346-5.8703-5.7097-10.059-10.498-10.059-1.3592 0-2.661 0.34105-3.8504 0.96407 1.5291 1.3594 2.6036 3.9621 2.6036 6.9073 0 4.3613-2.2644 7.8743-5.0399 7.8743-1.9822 0-3.7387-1.8697-4.5317-4.5318-0.28314 1.416-0.45316 2.9458-0.45316 4.5318 0 8.6659 5.0412 15.688 11.272 15.688 1.3817 0 2.7001-0.36082 3.9228-0.99294-9.7413 32.541-15.806 64.695-18.47 96.489-2.6995 3.7698-5.6061 7.9745-8.619 12.475-5.9614-38.86-6.8596-75.83-3.1146-110.35 7.1934-66.949 31.774-124.55 69.893-167.88 38.062-43.273 89.775-72.385 151.29-82.467 6.6836-1.1328 13.425-1.9845 20.335-2.6642 10.138-0.90625 45.595-2.6058 66.608-3.1722-10.883-1.176-21.559-1.8287-32.023-2.0003 35.064-28.138 75.83-29.192 99.82 15.03l0.45316 0.7909 0.84858 0.1703c0.0562 0.0566 22.205 4.7585 44.408 17.446 20.175 11.55 30.785 21.537 32.73 23.432-3.7694 6.8214-8.1086 14.684-8.1485 14.744 20.164-20.674 71.253-125.51 79.069-131.46 2.7125-1.3585 5.8356-2.008 9.3002-2.035zm-20.367 324.4c-0.82564-0.93002-1.6663-1.8371-2.5287-2.6931 0.86814 0.88264 1.6907 1.7928 2.5287 2.6931zm-406.51-303.95c4.1629 0.02837 7.2519 2.0805 9.7159 5.6488 4.7577 6.9101 7.6452 19.203 11.044 33.702 2.4355 10.422 5.0988 21.918 9.0635 33.7l0.69555-0.23668c-27.149 14.4-51.087 33.405-71.272 56.367-38.685 43.896-63.55 102.23-70.857 170.03-3.8805 36.049-2.8405 74.836 3.8274 115.58-11.592 17.786-24.124 39.628-31.976 60.853-9.219 24.773-12.982 50.096-4.0959 70.869-0.1007 0.38595-9.1825 34.509-14.187 64.94-4.5956-14.811-14.799-48.092-20.459-69.654-6.1737-23.845-6.4589-34.436-6.4021-37.155 3.7948-3.5683 33.533-30.812 41.972-41.574-2.2792 0.17531-3.4125 0.21347-5.6112 0.34926-0.1589-0.0271-0.34215-0.0315-0.56299-0.009-3.2286 0.28318-35.909 0.0565-43.329 0-3.57-13.83-29.62-126.77 31.38-268.99 59.525-138.88 120.7-174.91 130.66-180.06l10.706 14.839 3.5099 4.9272v-27.641c6.7685-4.5312 12.007-6.5258 16.17-6.4975zm275.02 174.72c-5.6701-0.15836-10.825 1.0372-13.65 3.5648-6.457 5.7773-3.7955 19.653 12.573 23.334 16.369 3.625 34.551-2.6613 34.551-2.6613 0 0.16994-3.7384-8.4407-12.914-16.88-5.1295-4.7153-13.27-7.154-20.56-7.3576zm-208.67 7.398c-15.822 0.12207-31.733 3.7534-47.794 11.347 21.183-8.496 51.201-7.6476 58.451-6.968 7.42 0.73633 16.937 0.51068 58.001 16.257-19.088-11.328-38.347-18.296-57.718-20.165-3.6426-0.33983-7.2884-0.49865-10.94-0.4705zm-129.62 30.27c-5.6106 0.15582-11.873 2.0456-15.824 5.7094-7.0233 6.457-9.9121 13.085-9.9121 12.972 0 0 13.99 4.8132 26.564 2.0379 12.631-2.832 14.671-13.479 9.6871-17.954-2.1805-1.9576-6.1516-2.8864-10.515-2.7652zm367.12 21.571c-15.576 0.28319-27.471 9.2306-31.549 24.07-1.0197 3.7949-1.4173 7.3078-1.4173 9.9699 5.664-17.445 11.781-31.04 33.021-31.437 6.2871-0.11324 12.576 1.4725 17.957 4.6443 3.3983 2.0391 6.4573 4.8165 8.723 8.2149 3.7947 5.5507 5.7201 12.516 5.3804 20.162-0.28231 7.2811-3.0982 16.081-7.6579 23.99-5.0701-0.5131-10.357-0.14806-13.073 0.93233-5.3241 2.0957-14.898 8.0999-17.05 17.729 5.6075-6.457 11.669-11.385 18.523-14.103 6.7401-2.6621 14.331-3.1156 22.997-0.62347-1.6549-1.7652-4.9407-2.9202-8.6392-3.559 4.8517-8.2535 7.2222-16.561 7.5048-24.249 0.33981-8.2128-1.7543-15.746-5.7758-21.75-2.5487-3.7383-5.891-6.742-9.6293-8.951-5.7206-3.455-12.573-5.1531-19.313-5.0398zm-12.291 28.83c-10.705 0-19.371 8.721-19.371 19.426s8.6661 19.371 19.371 19.371 19.371-8.6662 19.371-19.371c0-0.8496-0.0585-1.6981-0.11592-2.491-2.0391 1.5293-4.5871 2.491-7.3056 2.491-6.627 0-11.95-5.3797-11.95-11.95 0-2.7187 0.96182-5.2666 2.4911-7.3057-0.79296-0.11334-1.6414-0.17029-2.4911-0.17029zm-264 10.08c-33.086-0.0886-62.677 3.4715-65.364 12.467 15.576-10.762 61.681-8.9491 74.142-8.5526 12.234 0.33985 24.355-0.16872 35.853 0.9641 23.619 2.3222 51.091 5.6062 51.885 14.046 0.9062-2.5488-0.39695-4.7564-3.6255-6.6822-3.5684-2.209-10.082-4.1921-18.465-5.8913-8.2128-1.6426-18.353-3.0573-29.341-4.1334-14.284-1.3806-30.045-2.1765-45.084-2.2168zm6.5206 103.3c-34.223-0.0896-68.245 4.3485-102.02 14.066 38.799-9.5722 95.156-10.365 108.81-10.025 13.877 0.28318 31.663-0.4537 110.22 13.027-36.873-10.252-73.632-16.197-110.17-16.99-2.2832-0.0459-4.5652-0.072-6.8467-0.0779zm-130.62 28.946c-1.9831 29.627-1.0383 58.946 2.6007 87.98 4.7788 38.077 14.224 75.664 27.759 112.81-11.588-5.5847-48.635-24.703-67.745-49.994-16.029-21.183-12.802-50.355-2.1534-78.902 9.9095-26.792 26.282-52.953 39.539-71.893zm188.39 71.561c-8.2429 0.0472-16.457 0.269-24.645 0.67255-43.726 2.209-86.662 9.4599-128.75 22.714 45.425-12.687 112.66-17.956 129.03-18.805 16.595-0.79294 37.778-2.9455 132.93 4.1912-36.632-5.8906-72.854-8.9762-108.57-8.772zm277.23 0.99875c3.5388-0.006 7.132 0.22848 10.746 0.68697 0.85281 0.60101 1.6648 1.2916 2.5229 1.9888 15.349 13.254 34.662 44.916 46.443 78.333 11.668 33.191 15.916 68.081 1.1891 87.905-0.50972 0.73632-1.0741 1.4736-1.6972 2.1533-3.3418 3.9082-7.3647 6.9112-11.783 9.0635-16.142 7.873-38.346 5.0976-59.926-2.5487-21.75-7.6464-42.761-20.279-56.298-31.89-6.475-5.5742-11.154-10.867-13.324-15.269-1.4758-13.052-2.2192-39.899 11.171-74.335 7.873-20.277 21.184-37.44 38.006-47.636 9.5227-5.6994 20.924-8.4328 32.949-8.4516zm-510.28 74.255c1.2241 2.1807 2.6043 4.3049 4.1565 6.3589 22.965 30.36 70.879 52.023 72.794 52.863 2.8287 7.5393 5.8217 15.06 8.9828 22.564-1.9087 1.4114-22.59 16.468-43.15 26.639-4.8145 2.3789-10.195 4.3046-15.746 5.5507-8.496 1.9258-17.333 2.3786-24.809 0.7361-7.1933-1.5859-13.082-5.1553-16.083-11.159-0.67986-1.416-1.1912-2.8892-1.5877-4.5318-4.3537-19.274 11.098-82.055 15.443-99.021zm230.66 16.335c-6.8752 0.0472-13.729 0.26898-20.557 0.67255-36.476 2.1523-72.328 9.457-107.39 22.711 37.835-12.687 93.966-17.953 107.62-18.803 13.877-0.79295 31.549-2.9455 110.9 4.1912-30.557-5.8906-60.779-8.9762-90.572-8.772zm-143.14 69.157c3.9441 9.1987 8.1293 18.374 12.556 27.52-1.353 1.9174-6.1394 8.83-12.602 16.822-6.6076 8.1249-17.981 23.096-21.426 27.626-5.7993-5.7331-11.554-11.888-17.258-18.733-5.5857-6.7028-11.123-14.038-16.618-22.047 4.3454-1.2431 8.508-2.8638 12.314-4.7454 19.859-9.7752 39.415-23.8 43.034-26.443zm14.51 31.523c10.841 22.035 23.054 43.919 36.52 65.664-0.59882-0.0806-1.1976-0.16702-1.7982-0.22803-14.273-1.4726-29.112 2.55-43.329 12.519-6.9103 4.8144-12.575 12.914-16.71 22.826-4.3612 10.478-7.1354 23.052-8.0418 35.853-1.0074 13.853 0.45222 26.691 4.0324 38.306-3.8267-1.2165-10.466-0.47856-19.778 10.914-6.7673 8.277-9.6505 14.22-10.813 18.254-2.2158-2.9319-4.2111-5.9748-5.9549-9.1357-26.895-48.901 11.405-150.23 16.418-162.95 3.6664 4.0734 7.356 7.9278 11.049 11.595 0 0-0.05152 0.0663-0.05152 0.0664l0.48782 0.37236c0.27154 0.26853 0.54238 0.55019 0.81393 0.81686l0.1089-0.11264 1.7029 1.3018c0.0562-0.0566 16.368-21.58 23.787-30.755 5.4461-6.706 9.2871-12.09 11.555-15.31zm138.79 7.2451c-42.329-0.21376-89.375 4.9708-92.794 16.617 15.576-11.555 61.738-12.29 74.142-12.573 12.234-0.33983 24.355-1.4738 35.853-0.96407 23.619 1.0195 51.145 2.7775 51.882 11.217 0.9062-2.6054-0.39579-4.759-3.5678-6.5148-3.6249-1.9824-10.14-3.6252-18.522-4.8146-8.2127-1.2461-18.292-2.0956-29.28-2.5487-5.7137-0.2478-11.664-0.38798-17.711-0.41851zm-122.47 90.17c0.81053 1.6691 22.942 5.4695 32.891 30.464-7.2622 1.6142-17.121 8.1673-24.85 16.208-4.248 4.4179-7.9282 9.3466-10.137 14.161-2.3224 4.9277-3.1158 9.7983-1.53 13.933 1.0197 2.6621 2.9453 4.9834 6.0039 6.8525 5.205 3.077 11.038 3.8699 15.541 3.9112-7.5533 3.4104-13.464 2.7992-18.941 2.7162 4.5314 1.3027 9.631 1.7545 14.672 1.1314 5.5508-0.67963 11.043-2.6618 15.688-6.2867 4.6446-3.625 8.384-8.835 10.423-15.858 1.6427-5.7206 2.151-12.573 1.1316-20.786-4.7011-37.609-40.836-46.446-40.893-46.446zm33.8 32.935c0.52517 1.5154 0.99765 3.1111 1.4288 4.7742-0.48349-0.10562-0.99508-0.12252-1.5297-0.0433-1.6993 0.22656-3.625 1.245-5.5508 2.9442-1.9259 1.5859-3.9066 3.7974-5.7758 6.2896-5.7774 7.8163-10.253 18.804-7.5337 25.317 2.8461 6.6651 7.5303 8.4372 10.591 8.8528-0.76416 0.5578-1.5122 1.0764-2.2459 1.5529-3.4882 0.47395-12.11 1.0869-19.446-3.2704-2.5487-1.5293-4.1342-3.3973-4.9271-5.493-1.3027-3.3984-0.56698-7.5887 1.472-11.95 2.0958-4.5312 5.5496-9.177 9.6842-13.425 7.5401-7.8588 17.071-14.224 23.834-15.549zm0.86299 5.7297c0.31054 0.0327 0.59613 0.12694 0.86885 0.25397 0.56943 2.3792 1.0447 4.8995 1.3943 7.5885-0.91358-0.31129-2.1904-0.29663-3.9632 0.22231-0.45316 0.16993-0.90644 0.33916-1.3595 0.56572-3.455 1.7558-5.6061 5.9456-6.6823 10.42-1.0194 4.4746-1.0198 9.2338-0.17026 12.236 0.17002 0.56639 0.33922 1.019 0.5658 1.4721 1.6235 3.2141 4.0408 4.1569 5.7845 4.4047-1.2659 1.5926-2.6811 2.9714-4.1999 4.1479-0.06089 0.0475-0.11815 0.0857-0.17892 0.13287-2.5645-0.054-7.8659-1.0882-10.923-8.29-2.6054-6.1171 1.8138-16.709 7.4213-24.298 1.8125-2.4355 3.7392-4.5872 5.6084-6.1164 1.8125-1.5293 3.5093-2.5491 4.9819-2.7191 0.29754-0.0424 0.58255-0.0485 0.85152-0.0201zm0.88337 8.7777c0.71276 0.0547 1.2061 0.31685 1.5673 0.687 0.19508 1.8202 0.3089 3.5633 0.34637 5.2303-0.20773 0.77092-0.4185 1.3401-0.4185 1.3538l0.44449 0.1501c-0.02108 4.2531-0.55503 8-1.5212 11.292-0.96486 3.3924-2.4027 6.2732-4.1595 8.7114-1.4683-0.0801-3.9465-0.72063-5.5824-3.9544-0.16991-0.33983-0.33993-0.79096-0.45304-1.2441-0.84964-2.832-0.84941-7.4202 0.17026-11.725 1.0195-4.1914 3.001-8.1559 6.1162-9.7419 0.3966-0.16993 0.79402-0.33991 1.2471-0.45319 0.9062-0.26196 1.6451-0.35178 2.2428-0.30597zm163.73 20.72c0.25995 10.416 0.73747 38.047-1.4316 46.354l-0.11241 0.34057c-2.6777 10.265-10.127 38.373-79.193 46.902 0.0632-2.7382-0.19274-8.2117-2.7076-14.279-2.7558-6.649-7.4248-11.627-9.4446-13.587 15.923-5.9017 33.325-14.623 52.378-26.911 15.195-9.7949 28.627-23.016 40.512-38.82zm401.34 5.2332c3.3986 0 7.1351 1.7544 10.42 5.7759 2.8321 3.5117 5.3254 8.7249 6.968 16.031 3.0877 13.634 2.1156 26.743 1.6741 30.845-19.119 3.0649-38.329 3.491-49.304 2.2543 8.3954-14.586 13.242-30.774 15.122-47.532 3.0829-2.3533 10.223-7.4186 15.119-7.375zm-649.49 9.0087c2.5269 0.006 4.4418 0.99211 5.6431 1.8531 1.9996 5.0392 4.4015 9.8292 7.2161 14.326-0.95807 1.5054-8.1447 13.127-10.536 21.256-1.4467 4.8869-2.0357 8.7444-2.3062 11.315-9.4615-6.0506-17.715-12.938-24.319-20.693 0.01522-2.3419 1.3371-8.0218 10.767-19.565 5.4268-6.641 10.049-8.5007 13.535-8.492zm15.241 19.787c1.6605 2.3829 3.4332 4.6806 5.3198 6.8871 15.513 18.238 38.516 30.233 65.985 34.043 0.36382 0.90341 0.92845 2.4967 1.8705 5.6633 1.5042 4.9752 0.96241 9.6045 0.46182 12.089-16.59-2.28-32.882-5.88-48.045-10.84-13.496-4.45-26.047-9.98-37.118-16.6 0.11124-1.8862 0.55328-6.4319 2.341-12.519 1.8472-6.1431 6.8518-14.831 9.1791-18.725zm368.26 0.93234c0.42822-0.0173 0.84789-0.0133 1.2587 0.009 3.2851 0.16992 6.059 1.473 8.3245 3.1722 1.8692 1.416 3.3998 3.115 4.4192 4.6443 4.2599 6.2447 7.2159 11.844 8.0274 13.419-1.4892 2.637-2.9122 5.4982-4.2344 8.6133-9.5016 22.106-11.893 42.782-12.418 48.822-0.36721-0.0583-0.75222-0.10785-1.1171-0.16742-1.8125-0.28321-3.6826-0.62533-5.6084-1.0218-20.596-4.1344-36.394-11.734-48.086-21.536 2.3454-3.9518 11.435-18.768 27.808-40.598 4.0781-5.4941 7.9285-9.2305 11.497-11.609 3.7171-2.5276 7.1326-3.6258 10.129-3.7466zm109.25 0.41853c3.4196 0.0568 7.2168 0.89219 11.295 2.7047 7.08 3.1152 14.951 9.0625 23.164 18.918 15.154 18.213 24.186 39.448 26.841 46.25-10.65 3.3934-22.193 6.1736-34.26 8.3506-12.772 2.3012-26.096 3.9192-39.487 4.9358-0.73115-4.0259-2.6178-13.844-6.8438-30.706-1.9494-7.6173-4.78-15.62-8.0822-23.051 0.94589-2.2412 9.151-20.842 18.332-25.433 2.5772-1.3027 5.6208-2.0252 9.0405-1.9686zm-55.646 0.12413c1.47-0.0495 2.838 0.11674 4.07 0.48489 4.3046 1.3027 9.684 7.8722 14.782 16.765 5.6073 9.8554 10.762 22.431 13.65 33.985 4.1492 16.473 6.0242 26 6.7628 30.091-29.455 1.9679-58.995 0.94803-83.612-2.6094 0.47107-5.537 2.7603-26.02 12.112-47.872 4.8709-11.328 10.987-19.201 17.047-24.186 5.4376-4.4179 10.779-6.5104 15.189-6.6591zm-284.93 31.347c1.2962 1.4576 6.106 7.2333 8.9163 13.939 2.5452 6.181 2.5416 11.385 2.4391 13.269-22.439 2.42-46.836 2.164-70.756-0.82842 0.56627-2.9809 1.0868-8.1939-0.61487-13.743-0.81276-2.6928-0.87599-2.9594-1.169-3.9718 14.371 1.4517 30.702 0.27545 49.315-4.9215 3.8603-1.0698 7.8169-2.3178 11.869-3.7437z" fill="#4a422c"/>
</g>
</g>
</svg>
